<svg xmlns="http://www.w3.org/2000/svg" xmlns:xlink="http://www.w3.org/1999/xlink" width="1000" zoomAndPan="magnify" viewBox="0 0 750 374.999991" height="500" preserveAspectRatio="xMidYMid meet" version="1.0"><defs><g/><clipPath id="15ada83105"><path d="M 153 184 L 189.976562 184 L 189.976562 213 L 153 213 Z M 153 184 " clip-rule="nonzero"/></clipPath><clipPath id="64a72c6a53"><path d="M 127.726562 192.566406 L 175 192.566406 L 175 235.722656 L 127.726562 235.722656 Z M 127.726562 192.566406 " clip-rule="nonzero"/></clipPath></defs><path fill="#4dbee7" d="M 96.160156 201.132812 C 101.878906 194.339844 108.089844 187.554688 114.757812 180.890625 C 164.667969 131 221.074219 106.492188 240.746094 126.152344 C 246.050781 131.457031 248.136719 139.433594 247.382812 149.230469 C 252.375 131.414062 251.265625 116.910156 242.839844 108.484375 C 221.015625 86.671875 158.441406 113.859375 103.070312 169.207031 C 96.984375 175.292969 91.238281 181.464844 85.859375 187.660156 C 89.074219 192.152344 92.515625 196.652344 96.160156 201.132812 " fill-opacity="1" fill-rule="nonzero"/><path fill="#00367d" d="M 76.972656 126.152344 C 88.285156 114.84375 111.757812 118.152344 139.152344 132.492188 C 144.410156 128.613281 149.65625 125.007812 154.847656 121.691406 C 119.835938 100.703125 88.917969 94.449219 74.878906 108.484375 C 66.449219 116.910156 65.339844 131.414062 70.335938 149.230469 C 69.582031 139.433594 71.667969 131.457031 76.972656 126.152344 " fill-opacity="1" fill-rule="nonzero"/><path fill="#00367d" d="M 214.648438 169.207031 C 202.675781 157.238281 190.367188 146.59375 178.203125 137.46875 C 173.113281 140.238281 167.902344 143.382812 162.632812 146.863281 C 175.992188 156.179688 189.707031 167.640625 202.960938 180.890625 C 252.871094 230.78125 277.382812 287.167969 257.71875 306.832031 C 252.414062 312.132812 244.433594 314.21875 234.632812 313.464844 C 252.453125 318.457031 266.964844 317.347656 275.394531 308.921875 C 297.214844 287.109375 270.015625 224.554688 214.648438 169.207031 " fill-opacity="1" fill-rule="nonzero"/><path fill="#4dbee7" d="M 257.714844 102.003906 C 272.128906 116.414062 262.8125 150.542969 237.164062 187.386719 C 240.988281 191.871094 244.632812 196.386719 248.09375 200.910156 C 279.921875 157.679688 292.199219 116.710938 275.390625 99.910156 C 266.964844 91.484375 252.453125 90.378906 234.628906 95.371094 C 244.433594 94.617188 252.410156 96.699219 257.714844 102.003906 " fill-opacity="1" fill-rule="nonzero"/><path fill="#4dbee7" d="M 60 306.832031 C 45.585938 292.421875 54.902344 258.289062 80.550781 221.445312 C 76.730469 216.960938 73.082031 212.445312 69.621094 207.921875 C 37.792969 251.152344 25.519531 292.125 42.324219 308.921875 C 50.753906 317.347656 65.265625 318.457031 83.085938 313.464844 C 73.285156 314.21875 65.308594 312.132812 60 306.832031 " fill-opacity="1" fill-rule="nonzero"/><path fill="#00367d" d="M 139.511719 271.367188 C 144.601562 268.597656 149.816406 265.453125 155.085938 261.96875 C 141.726562 252.652344 128.011719 241.195312 114.757812 227.945312 C 64.847656 178.050781 40.332031 121.667969 60 102.003906 C 65.308594 96.699219 73.285156 94.617188 83.085938 95.367188 C 65.265625 90.378906 50.753906 91.484375 42.324219 99.910156 C 20.503906 121.722656 47.703125 184.277344 103.070312 239.628906 C 115.042969 251.59375 127.351562 262.242188 139.511719 271.367188 " fill-opacity="1" fill-rule="nonzero"/><path fill="#00367d" d="M 247.382812 259.601562 C 248.136719 269.402344 246.050781 277.378906 240.746094 282.679688 C 229.429688 293.988281 205.960938 290.683594 178.566406 276.339844 C 173.304688 280.21875 168.0625 283.828125 162.871094 287.140625 C 197.882812 308.128906 228.796875 314.386719 242.839844 300.351562 C 251.265625 291.925781 252.375 277.421875 247.382812 259.601562 " fill-opacity="1" fill-rule="nonzero"/><path fill="#4dbee7" d="M 221.554688 207.703125 C 215.835938 214.496094 209.628906 221.277344 202.960938 227.945312 C 153.050781 277.835938 96.640625 302.34375 76.972656 282.679688 C 71.667969 277.378906 69.582031 269.402344 70.335938 259.601562 C 65.339844 277.421875 66.449219 291.925781 74.878906 300.351562 C 96.699219 322.164062 159.277344 294.976562 214.648438 239.628906 C 220.734375 233.542969 226.476562 227.367188 231.859375 221.171875 C 228.644531 216.683594 225.203125 212.179688 221.554688 207.703125 " fill-opacity="1" fill-rule="nonzero"/><path fill="#00367d" d="M 138.636719 182.21875 C 139.105469 182.21875 139.539062 181.914062 139.683594 181.4375 C 139.835938 180.933594 140.246094 180.546875 140.757812 180.425781 C 141.34375 180.285156 141.707031 179.691406 141.566406 179.101562 C 141.425781 178.511719 140.84375 178.140625 140.25 178.289062 C 138.984375 178.589844 137.964844 179.554688 137.589844 180.804688 C 137.417969 181.386719 137.742188 181.996094 138.320312 182.171875 C 138.425781 182.203125 138.53125 182.21875 138.636719 182.21875 " fill-opacity="1" fill-rule="nonzero"/><path fill="#00367d" d="M 136.921875 180.550781 C 137.515625 178.570312 139.332031 177.285156 141.296875 177.285156 C 141.730469 177.285156 142.171875 177.351562 142.609375 177.480469 L 147.957031 179.085938 L 145.324219 187.875 L 139.976562 186.269531 C 137.566406 185.539062 136.195312 182.976562 136.921875 180.550781 Z M 139.136719 189.074219 L 150.703125 192.574219 C 151.417969 192.789062 152.144531 192.894531 152.855469 192.894531 C 156.070312 192.894531 159.050781 190.792969 160.023438 187.542969 C 161.210938 183.574219 158.964844 179.371094 155.015625 178.175781 L 143.449219 174.679688 C 139.503906 173.484375 135.320312 175.738281 134.128906 179.710938 C 132.941406 183.675781 135.1875 187.878906 139.136719 189.074219 " fill-opacity="1" fill-rule="nonzero"/><path fill="#00367d" d="M 180.238281 189.242188 C 179.632812 189.191406 179.105469 189.632812 179.050781 190.238281 C 179 190.84375 179.441406 191.375 180.042969 191.429688 C 180.96875 191.511719 181.78125 192.085938 182.171875 192.925781 C 182.359375 193.324219 182.753906 193.558594 183.164062 193.558594 C 183.320312 193.558594 183.476562 193.523438 183.625 193.453125 C 184.171875 193.199219 184.410156 192.542969 184.152344 191.996094 C 183.433594 190.449219 181.933594 189.394531 180.238281 189.242188 " fill-opacity="1" fill-rule="nonzero"/><g clip-path="url(#15ada83105)"><path fill="#00367d" d="M 182.589844 201.382812 L 175.550781 204.691406 L 169.441406 191.566406 L 176.484375 188.257812 C 178.230469 187.4375 180.1875 187.351562 181.996094 188.011719 C 183.808594 188.671875 185.253906 190 186.070312 191.753906 C 187.753906 195.371094 186.191406 199.691406 182.589844 201.382812 Z M 188.710938 190.511719 C 187.5625 188.050781 185.535156 186.183594 182.992188 185.257812 C 180.449219 184.332031 177.703125 184.453125 175.25 185.605469 L 159.507812 193 C 154.449219 195.375 152.257812 201.441406 154.625 206.523438 C 156.339844 210.21875 160 212.390625 163.808594 212.390625 C 165.242188 212.390625 166.699219 212.082031 168.082031 211.433594 L 183.824219 204.039062 C 186.273438 202.886719 188.132812 200.847656 189.054688 198.292969 C 189.976562 195.738281 189.855469 192.976562 188.710938 190.511719 " fill-opacity="1" fill-rule="nonzero"/></g><g clip-path="url(#64a72c6a53)"><path fill="#00367d" d="M 168.96875 212.464844 C 168.011719 213.207031 167.835938 214.585938 168.570312 215.546875 C 171.265625 219.066406 171.261719 223.984375 168.5625 227.503906 C 166.972656 229.578125 164.671875 230.910156 162.085938 231.246094 C 159.503906 231.578125 156.941406 230.886719 154.878906 229.289062 L 147.125 223.289062 L 155.082031 212.902344 C 155.820312 211.941406 155.640625 210.5625 154.683594 209.824219 C 153.730469 209.085938 152.355469 209.261719 151.617188 210.222656 L 143.660156 220.609375 L 135.90625 214.605469 C 133.839844 213.007812 132.519531 210.699219 132.183594 208.101562 C 131.847656 205.503906 132.539062 202.929688 134.128906 200.855469 C 137.410156 196.570312 143.546875 195.769531 147.8125 199.070312 L 149.082031 200.050781 C 150.035156 200.792969 151.410156 200.613281 152.144531 199.652344 C 152.882812 198.691406 152.703125 197.3125 151.746094 196.570312 L 150.480469 195.589844 C 147.488281 193.277344 143.78125 192.269531 140.039062 192.757812 C 136.296875 193.246094 132.964844 195.171875 130.664062 198.175781 C 128.363281 201.179688 127.359375 204.90625 127.847656 208.667969 C 128.332031 212.429688 130.246094 215.773438 133.238281 218.085938 L 152.210938 232.769531 C 154.707031 234.703125 157.703125 235.722656 160.804688 235.722656 C 161.414062 235.722656 162.03125 235.683594 162.652344 235.601562 C 166.394531 235.113281 169.722656 233.191406 172.023438 230.1875 C 175.933594 225.085938 175.9375 217.964844 172.035156 212.867188 C 171.296875 211.90625 169.929688 211.726562 168.96875 212.464844 " fill-opacity="1" fill-rule="nonzero"/></g><path fill="#00367d" d="M 137.523438 201.636719 C 136.886719 201.140625 135.972656 201.261719 135.480469 201.902344 C 134.171875 203.613281 133.601562 205.734375 133.878906 207.878906 C 134.15625 210.023438 135.246094 211.929688 136.945312 213.246094 C 137.210938 213.453125 137.523438 213.550781 137.835938 213.550781 C 138.269531 213.550781 138.703125 213.355469 138.988281 212.980469 C 139.480469 212.339844 139.363281 211.421875 138.726562 210.925781 C 137.640625 210.085938 136.945312 208.871094 136.769531 207.503906 C 136.59375 206.132812 136.953125 204.78125 137.789062 203.691406 C 138.28125 203.050781 138.164062 202.128906 137.523438 201.636719 " fill-opacity="1" fill-rule="nonzero"/><g fill="#01a2dc" fill-opacity="1"><g transform="translate(297.346631, 187.3453)"><g><path d="M 3.90625 -53.625 L 20.546875 -53.625 C 25.566406 -53.625 29.570312 -52.550781 32.5625 -50.40625 C 35.550781 -48.257812 37.046875 -44.78125 37.046875 -39.96875 C 37.046875 -34.601562 34.816406 -30.769531 30.359375 -28.46875 C 37.984375 -27.125 41.796875 -22.617188 41.796875 -14.953125 C 41.796875 -10.441406 40.234375 -6.820312 37.109375 -4.09375 C 33.992188 -1.363281 29.707031 0 24.25 0 L 3.90625 0 Z M 16.125 -32.625 L 17.09375 -32.625 C 19.820312 -32.625 21.859375 -33.097656 23.203125 -34.046875 C 24.546875 -35.003906 25.21875 -36.566406 25.21875 -38.734375 C 25.21875 -42.378906 22.507812 -44.203125 17.09375 -44.203125 L 16.125 -44.203125 Z M 16.125 -9.421875 L 19.953125 -9.421875 C 25.929688 -9.421875 28.921875 -11.414062 28.921875 -15.40625 C 28.921875 -17.789062 28.171875 -19.5 26.671875 -20.53125 C 25.179688 -21.570312 22.941406 -22.09375 19.953125 -22.09375 L 16.125 -22.09375 Z M 16.125 -9.421875 "/></g></g></g><g fill="#01a2dc" fill-opacity="1"><g transform="translate(344.531468, 187.3453)"><g><path d="M 16.125 -53.625 L 16.125 -10.71875 L 34.578125 -10.71875 L 34.578125 0 L 3.90625 0 L 3.90625 -53.625 Z M 16.125 -53.625 "/></g></g></g><g fill="#01a2dc" fill-opacity="1"><g transform="translate(385.152089, 187.3453)"><g><path d="M 45.109375 -53.625 L 45.109375 -19.046875 C 45.109375 -12.460938 43.332031 -7.476562 39.78125 -4.09375 C 36.226562 -0.71875 31.023438 0.96875 24.171875 0.96875 C 17.328125 0.96875 12.128906 -0.71875 8.578125 -4.09375 C 5.023438 -7.476562 3.25 -12.460938 3.25 -19.046875 L 3.25 -53.625 L 15.46875 -53.625 L 15.46875 -22.625 C 15.46875 -18.289062 16.148438 -15.273438 17.515625 -13.578125 C 18.878906 -11.890625 21.097656 -11.046875 24.171875 -11.046875 C 27.253906 -11.046875 29.476562 -11.890625 30.84375 -13.578125 C 32.207031 -15.273438 32.890625 -18.289062 32.890625 -22.625 L 32.890625 -53.625 Z M 45.109375 -53.625 "/></g></g></g><g fill="#01a2dc" fill-opacity="1"><g transform="translate(437.406318, 187.3453)"><g><path d="M 34.578125 -53.625 L 34.578125 -42.90625 L 16.125 -42.90625 L 16.125 -32.234375 L 33.796875 -32.234375 L 33.796875 -21.515625 L 16.125 -21.515625 L 16.125 -10.71875 L 34.578125 -10.71875 L 34.578125 0 L 3.90625 0 L 3.90625 -53.625 Z M 34.578125 -53.625 "/></g></g></g><g fill="#01a2dc" fill-opacity="1"><g transform="translate(479.001812, 187.3453)"><g><path d="M 27.234375 -53.625 L 27.234375 -15.140625 C 27.234375 -9.898438 25.789062 -5.90625 22.90625 -3.15625 C 20.03125 -0.40625 15.90625 0.96875 10.53125 0.96875 C 9.101562 0.96875 7.691406 0.796875 6.296875 0.453125 C 4.910156 0.109375 3.738281 -0.3125 2.78125 -0.8125 C 1.832031 -1.3125 0.976562 -1.820312 0.21875 -2.34375 C -0.53125 -2.863281 -1.082031 -3.296875 -1.4375 -3.640625 L -2.015625 -4.15625 L 1.890625 -14.359375 C 4.441406 -11.929688 6.757812 -10.71875 8.84375 -10.71875 C 10.707031 -10.71875 12.203125 -11.335938 13.328125 -12.578125 C 14.453125 -13.816406 15.015625 -15.710938 15.015625 -18.265625 L 15.015625 -53.625 Z M 27.234375 -53.625 "/></g></g></g><g fill="#01a2dc" fill-opacity="1"><g transform="translate(513.383169, 187.3453)"><g><path d="M 31.140625 -53.625 L 52.78125 0 L 39.65625 0 L 35.6875 -10.71875 L 15.28125 -10.71875 L 11.3125 0 L -1.8125 0 L 19.828125 -53.625 Z M 31.53125 -21.453125 L 25.546875 -37.046875 L 25.421875 -37.046875 L 19.4375 -21.453125 Z M 31.53125 -21.453125 "/></g></g></g><g fill="#01a2dc" fill-opacity="1"><g transform="translate(568.2371, 187.3453)"><g><path d="M 32.4375 -11.046875 C 34.300781 -11.046875 36.109375 -11.328125 37.859375 -11.890625 C 39.617188 -12.453125 40.910156 -12.992188 41.734375 -13.515625 L 42.96875 -14.359375 L 48.171875 -3.96875 C 47.992188 -3.832031 47.753906 -3.65625 47.453125 -3.4375 C 47.148438 -3.226562 46.445312 -2.828125 45.34375 -2.234375 C 44.238281 -1.648438 43.054688 -1.140625 41.796875 -0.703125 C 40.535156 -0.273438 38.882812 0.109375 36.84375 0.453125 C 34.8125 0.796875 32.710938 0.96875 30.546875 0.96875 C 25.566406 0.96875 20.84375 -0.253906 16.375 -2.703125 C 11.914062 -5.148438 8.320312 -8.515625 5.59375 -12.796875 C 2.863281 -17.085938 1.5 -21.726562 1.5 -26.71875 C 1.5 -30.488281 2.300781 -34.101562 3.90625 -37.5625 C 5.507812 -41.03125 7.640625 -44 10.296875 -46.46875 C 12.960938 -48.945312 16.070312 -50.921875 19.625 -52.390625 C 23.175781 -53.859375 26.816406 -54.59375 30.546875 -54.59375 C 34.015625 -54.59375 37.210938 -54.179688 40.140625 -53.359375 C 43.066406 -52.535156 45.132812 -51.710938 46.34375 -50.890625 L 48.171875 -49.65625 L 42.96875 -39.265625 C 42.664062 -39.523438 42.207031 -39.835938 41.59375 -40.203125 C 40.988281 -40.566406 39.773438 -41.050781 37.953125 -41.65625 C 36.140625 -42.269531 34.300781 -42.578125 32.4375 -42.578125 C 29.488281 -42.578125 26.84375 -42.097656 24.5 -41.140625 C 22.164062 -40.191406 20.316406 -38.9375 18.953125 -37.375 C 17.585938 -35.8125 16.546875 -34.128906 15.828125 -32.328125 C 15.109375 -30.535156 14.75 -28.707031 14.75 -26.84375 C 14.75 -22.769531 16.273438 -19.117188 19.328125 -15.890625 C 22.390625 -12.660156 26.757812 -11.046875 32.4375 -11.046875 Z M 32.4375 -11.046875 "/></g></g></g><g fill="#01a2dc" fill-opacity="1"><g transform="translate(621.076254, 187.3453)"><g><path d="M 52.71875 0 L 35.875 0 L 16.125 -22.75 L 16.125 0 L 3.90625 0 L 3.90625 -53.625 L 16.125 -53.625 L 16.125 -31.71875 L 34.515625 -53.625 L 49.328125 -53.625 L 27.75 -28.203125 Z M 52.71875 0 "/></g></g></g><g fill="#00367d" fill-opacity="1"><g transform="translate(297.346631, 256.187165)"><g><path d="M 3.90625 -53.625 L 23.46875 -53.625 C 28.925781 -53.625 33.34375 -52.210938 36.71875 -49.390625 C 40.101562 -46.578125 41.796875 -42.484375 41.796875 -37.109375 C 41.796875 -31.742188 40.082031 -27.53125 36.65625 -24.46875 C 33.238281 -21.414062 28.84375 -19.890625 23.46875 -19.890625 L 16.125 -19.890625 L 16.125 0 L 3.90625 0 Z M 16.125 -29.640625 L 19.5625 -29.640625 C 22.289062 -29.640625 24.53125 -30.191406 26.28125 -31.296875 C 28.039062 -32.398438 28.921875 -34.207031 28.921875 -36.71875 C 28.921875 -39.28125 28.039062 -41.113281 26.28125 -42.21875 C 24.53125 -43.320312 22.289062 -43.875 19.5625 -43.875 L 16.125 -43.875 Z M 16.125 -29.640625 "/></g></g></g><g fill="#00367d" fill-opacity="1"><g transform="translate(344.531468, 256.187165)"><g><path d="M 16.125 -21.515625 L 16.125 0 L 3.90625 0 L 3.90625 -53.625 L 16.125 -53.625 L 16.125 -32.234375 L 33.40625 -32.234375 L 33.40625 -53.625 L 45.625 -53.625 L 45.625 0 L 33.40625 0 L 33.40625 -21.515625 Z M 16.125 -21.515625 "/></g></g></g><g fill="#00367d" fill-opacity="1"><g transform="translate(397.955563, 256.187165)"><g><path d="M 31.140625 -53.625 L 52.78125 0 L 39.65625 0 L 35.6875 -10.71875 L 15.28125 -10.71875 L 11.3125 0 L -1.8125 0 L 19.828125 -53.625 Z M 31.53125 -21.453125 L 25.546875 -37.046875 L 25.421875 -37.046875 L 19.4375 -21.453125 Z M 31.53125 -21.453125 "/></g></g></g><g fill="#00367d" fill-opacity="1"><g transform="translate(452.809484, 256.187165)"><g><path d="M 3.90625 -53.625 L 23.078125 -53.625 C 28.234375 -53.625 32.4375 -52.25 35.6875 -49.5 C 38.9375 -46.75 40.5625 -42.816406 40.5625 -37.703125 C 40.5625 -33.753906 39.570312 -30.445312 37.59375 -27.78125 C 35.625 -25.125 32.953125 -23.253906 29.578125 -22.171875 L 48.03125 0 L 32.5 0 L 16.125 -21.1875 L 16.125 0 L 3.90625 0 Z M 16.125 -29.828125 L 17.546875 -29.828125 C 18.671875 -29.828125 19.625 -29.847656 20.40625 -29.890625 C 21.1875 -29.941406 22.070312 -30.097656 23.0625 -30.359375 C 24.0625 -30.617188 24.863281 -30.984375 25.46875 -31.453125 C 26.082031 -31.929688 26.601562 -32.625 27.03125 -33.53125 C 27.46875 -34.445312 27.6875 -35.554688 27.6875 -36.859375 C 27.6875 -38.160156 27.46875 -39.265625 27.03125 -40.171875 C 26.601562 -41.078125 26.082031 -41.769531 25.46875 -42.25 C 24.863281 -42.726562 24.0625 -43.097656 23.0625 -43.359375 C 22.070312 -43.617188 21.1875 -43.769531 20.40625 -43.8125 C 19.625 -43.851562 18.671875 -43.875 17.546875 -43.875 L 16.125 -43.875 Z M 16.125 -29.828125 "/></g></g></g><g fill="#00367d" fill-opacity="1"><g transform="translate(503.243936, 256.187165)"><g><path d="M 48.234375 0 L 45.6875 -31.78125 L 45.375 -31.78125 L 34.390625 -0.328125 L 27.109375 -0.328125 L 16.125 -31.78125 L 15.796875 -31.78125 L 13.265625 0 L 1.046875 0 L 5.84375 -53.625 L 18.84375 -53.625 L 30.75 -22.6875 L 42.640625 -53.625 L 55.640625 -53.625 L 60.453125 0 Z M 48.234375 0 "/></g></g></g><g fill="#00367d" fill-opacity="1"><g transform="translate(568.626592, 256.187165)"><g><path d="M 31.140625 -53.625 L 52.78125 0 L 39.65625 0 L 35.6875 -10.71875 L 15.28125 -10.71875 L 11.3125 0 L -1.8125 0 L 19.828125 -53.625 Z M 31.53125 -21.453125 L 25.546875 -37.046875 L 25.421875 -37.046875 L 19.4375 -21.453125 Z M 31.53125 -21.453125 "/></g></g></g><g fill="#00367d" fill-opacity="1"><g transform="translate(623.480523, 256.187165)"><g><path d="M 32.4375 -11.046875 C 34.300781 -11.046875 36.109375 -11.328125 37.859375 -11.890625 C 39.617188 -12.453125 40.910156 -12.992188 41.734375 -13.515625 L 42.96875 -14.359375 L 48.171875 -3.96875 C 47.992188 -3.832031 47.753906 -3.65625 47.453125 -3.4375 C 47.148438 -3.226562 46.445312 -2.828125 45.34375 -2.234375 C 44.238281 -1.648438 43.054688 -1.140625 41.796875 -0.703125 C 40.535156 -0.273438 38.882812 0.109375 36.84375 0.453125 C 34.8125 0.796875 32.710938 0.96875 30.546875 0.96875 C 25.566406 0.96875 20.84375 -0.253906 16.375 -2.703125 C 11.914062 -5.148438 8.320312 -8.515625 5.59375 -12.796875 C 2.863281 -17.085938 1.5 -21.726562 1.5 -26.71875 C 1.5 -30.488281 2.300781 -34.101562 3.90625 -37.5625 C 5.507812 -41.03125 7.640625 -44 10.296875 -46.46875 C 12.960938 -48.945312 16.070312 -50.921875 19.625 -52.390625 C 23.175781 -53.859375 26.816406 -54.59375 30.546875 -54.59375 C 34.015625 -54.59375 37.210938 -54.179688 40.140625 -53.359375 C 43.066406 -52.535156 45.132812 -51.710938 46.34375 -50.890625 L 48.171875 -49.65625 L 42.96875 -39.265625 C 42.664062 -39.523438 42.207031 -39.835938 41.59375 -40.203125 C 40.988281 -40.566406 39.773438 -41.050781 37.953125 -41.65625 C 36.140625 -42.269531 34.300781 -42.578125 32.4375 -42.578125 C 29.488281 -42.578125 26.84375 -42.097656 24.5 -41.140625 C 22.164062 -40.191406 20.316406 -38.9375 18.953125 -37.375 C 17.585938 -35.8125 16.546875 -34.128906 15.828125 -32.328125 C 15.109375 -30.535156 14.75 -28.707031 14.75 -26.84375 C 14.75 -22.769531 16.273438 -19.117188 19.328125 -15.890625 C 22.390625 -12.660156 26.757812 -11.046875 32.4375 -11.046875 Z M 32.4375 -11.046875 "/></g></g></g><g fill="#00367d" fill-opacity="1"><g transform="translate(676.319676, 256.187165)"><g><path d="M -1.953125 -53.625 L 12.734375 -53.625 L 23.921875 -36.46875 L 35.09375 -53.625 L 49.796875 -53.625 L 30.03125 -24.046875 L 30.03125 0 L 17.8125 0 L 17.8125 -24.046875 Z M -1.953125 -53.625 "/></g></g></g></svg>